<?xml version="1.0" encoding="UTF-8"?>
<svg width="328px" height="198px" viewBox="0 0 328 198" version="1.1" xmlns="http://www.w3.org/2000/svg" xmlns:xlink="http://www.w3.org/1999/xlink">
    <!-- Generator: Sketch 48.2 (47327) - http://www.bohemiancoding.com/sketch -->
    <title>Graphic1-AutoML@3x</title>
    <desc>Created with Sketch.</desc>
    <defs>
        <path d="M0.193033493,3.00378947 C0.193033493,4.49705263 1.40380861,5.70704306 2.89628708,5.70704306 C4.38876555,5.70704306 5.59875598,4.49705263 5.59875598,3.00378947 C5.59875598,1.511311 4.38876555,0.301320574 2.89628708,0.301320574 C1.40380861,0.301320574 0.193033493,1.511311 0.193033493,3.00378947" id="path-1"></path>
        <path d="M0.530449761,3.00378947 C0.530449761,4.49705263 1.74044019,5.70704306 3.23291866,5.70704306 C4.72539713,5.70704306 5.93617225,4.49705263 5.93617225,3.00378947 C5.93617225,1.511311 4.72539713,0.301320574 3.23291866,0.301320574 C1.74044019,0.301320574 0.530449761,1.511311 0.530449761,3.00378947" id="path-3"></path>
        <path d="M0.193033493,2.95043062 C0.193033493,4.44290909 1.40380861,5.65368421 2.89628708,5.65368421 C4.38876555,5.65368421 5.59875598,4.44290909 5.59875598,2.95043062 C5.59875598,1.45716746 4.38876555,0.247961722 2.89628708,0.247961722 C1.40380861,0.247961722 0.193033493,1.45716746 0.193033493,2.95043062" id="path-5"></path>
        <path d="M0.530449761,2.95043062 C0.530449761,4.44290909 1.74044019,5.65368421 3.23291866,5.65368421 C4.72539713,5.65368421 5.93617225,4.44290909 5.93617225,2.95043062 C5.93617225,1.45716746 4.72539713,0.247961722 3.23291866,0.247961722 C1.74044019,0.247961722 0.530449761,1.45716746 0.530449761,2.95043062" id="path-7"></path>
        <path d="M0.317014354,3.48244976 C0.317014354,4.97414354 1.52778947,6.18491866 3.02026794,6.18491866 C4.5135311,6.18491866 5.72352153,4.97414354 5.72352153,3.48244976 C5.72352153,1.9891866 4.5135311,0.778411483 3.02026794,0.778411483 C1.52778947,0.778411483 0.317014354,1.9891866 0.317014354,3.48244976" id="path-9"></path>
        <path d="M0.654430622,3.42830622 C0.654430622,4.92078469 1.86442105,6.13155981 3.35768421,6.13155981 C4.84937799,6.13155981 6.06015311,4.92078469 6.06015311,3.42830622 C6.06015311,1.93582775 4.84937799,0.725052632 3.35768421,0.725052632 C1.86442105,0.725052632 0.654430622,1.93582775 0.654430622,3.42830622" id="path-11"></path>
        <path d="M0.654430622,3.48244976 C0.654430622,4.97414354 1.86442105,6.18491866 3.35768421,6.18491866 C4.84937799,6.18491866 6.06015311,4.97414354 6.06015311,3.48244976 C6.06015311,1.9891866 4.84937799,0.778411483 3.35768421,0.778411483 C1.86442105,0.778411483 0.654430622,1.9891866 0.654430622,3.48244976" id="path-13"></path>
        <path d="M0.317014354,3.42830622 C0.317014354,4.92078469 1.52778947,6.13155981 3.02026794,6.13155981 C4.5135311,6.13155981 5.72352153,4.92078469 5.72352153,3.42830622 C5.72352153,1.93582775 4.5135311,0.725052632 3.02026794,0.725052632 C1.52778947,0.725052632 0.317014354,1.93582775 0.317014354,3.42830622" id="path-15"></path>
        <path d="M0.129473684,3.15209569 C0.129473684,4.64535885 1.3402488,5.85534928 2.83351196,5.85534928 C4.32599043,5.85534928 5.53598086,4.64535885 5.53598086,3.15209569 C5.53598086,1.65961722 4.32599043,0.448842105 2.83351196,0.448842105 C1.3402488,0.448842105 0.129473684,1.65961722 0.129473684,3.15209569" id="path-17"></path>
        <path d="M0.129473684,3.09873684 C0.129473684,4.592 1.3402488,5.80120574 2.83351196,5.80120574 C4.32599043,5.80120574 5.53598086,4.592 5.53598086,3.09873684 C5.53598086,1.60547368 4.32599043,0.396267943 2.83351196,0.396267943 C1.3402488,0.396267943 0.129473684,1.60547368 0.129473684,3.09873684" id="path-19"></path>
        <polygon id="path-21" points="0.608133971 0.714066986 22.1666794 0.714066986 22.1666794 6.50821053 0.608133971 6.50821053"></polygon>
        <path d="M0.466889952,3.15209569 C0.466889952,4.64535885 1.67688038,5.85534928 3.17014354,5.85534928 C4.66262201,5.85534928 5.87261244,4.64535885 5.87261244,3.15209569 C5.87261244,1.65961722 4.66262201,0.448842105 3.17014354,0.448842105 C1.67688038,0.448842105 0.466889952,1.65961722 0.466889952,3.15209569" id="path-23"></path>
        <path d="M0.466889952,3.09873684 C0.466889952,4.592 1.67688038,5.80120574 3.17014354,5.80120574 C4.66262201,5.80120574 5.87261244,4.592 5.87261244,3.09873684 C5.87261244,1.60547368 4.66262201,0.396267943 3.17014354,0.396267943 C1.67688038,0.396267943 0.466889952,1.60547368 0.466889952,3.09873684" id="path-25"></path>
        <path d="M0.754870813,3.15209569 C0.754870813,4.64535885 1.96486124,5.85534928 3.45733971,5.85534928 C4.95060287,5.85534928 6.16137799,4.64535885 6.16137799,3.15209569 C6.16137799,1.65961722 4.95060287,0.448842105 3.45733971,0.448842105 C1.96486124,0.448842105 0.754870813,1.65961722 0.754870813,3.15209569" id="path-27"></path>
        <path d="M0.306813397,3.09873684 C0.306813397,4.592 1.51758852,5.80120574 3.01006699,5.80120574 C4.50333014,5.80120574 5.71253589,4.592 5.71253589,3.09873684 C5.71253589,1.60547368 4.50333014,0.396267943 3.01006699,0.396267943 C1.51758852,0.396267943 0.306813397,1.60547368 0.306813397,3.09873684" id="path-29"></path>
        <path d="M0.754870813,3.09873684 C0.754870813,4.592 1.96486124,5.80120574 3.45733971,5.80120574 C4.95060287,5.80120574 6.16137799,4.592 6.16137799,3.09873684 C6.16137799,1.60547368 4.95060287,0.396267943 3.45733971,0.396267943 C1.96486124,0.396267943 0.754870813,1.60547368 0.754870813,3.09873684" id="path-31"></path>
        <path d="M0.306813397,3.15209569 C0.306813397,4.64535885 1.51758852,5.85534928 3.01006699,5.85534928 C4.50333014,5.85534928 5.71253589,4.64535885 5.71253589,3.15209569 C5.71253589,1.65961722 4.50333014,0.448842105 3.01006699,0.448842105 C1.51758852,0.448842105 0.306813397,1.65961722 0.306813397,3.15209569" id="path-33"></path>
    </defs>
    <g id="Cloud-AutoML-Mock" stroke="none" stroke-width="1" fill="none" fill-rule="evenodd" transform="translate(-807.000000, -420.000000)">
        <g id="Graphic1-AutoML" transform="translate(807.000000, 420.000000)">
            <g id="Group-20" transform="translate(0.000000, 0.647368)">
                <g id="Group-3" fill="#E7E7E7">
                    <path d="M327.535935,107.501294 C327.262863,101.430155 322.271456,96.5894086 316.135189,96.5894086 C314.95737,96.5894086 313.824279,96.7667483 312.757102,97.0963177 C312.805753,96.6278584 312.830078,96.1531215 312.830078,95.6744612 C312.830078,87.7695043 306.424662,81.364088 298.519705,81.364088 C297.570232,81.364088 296.641944,81.4598201 295.745045,81.6395139 C296.213504,79.3552842 296.462251,76.9902316 296.462251,74.5655426 C296.462251,55.2920115 280.835954,39.6696383 261.562423,39.6696383 C254.969466,39.6696383 248.808873,41.499533 243.548318,44.6736 C233.426614,18.6156478 208.118825,0.137006699 178.483476,0.137006699 C139.937198,0.137006699 108.688528,31.3856766 108.688528,69.9327388 C108.688528,73.0840498 108.916873,76.1788632 109.320203,79.2211024 C106.9936,78.5501933 104.540662,78.1821742 101.993562,78.1821742 C94.047801,78.1821742 86.9251789,81.7007196 82.0844325,87.2586718 C76.4127005,75.6617531 64.5026909,67.6712651 50.7219828,67.6712651 C33.1190545,67.6712651 18.5685665,80.7041646 16.1768344,97.6448153 C14.7220211,96.9723368 13.1079158,96.5894086 11.4012172,96.5894086 C5.26494928,96.5894086 0.272757895,101.430155 -0.000313875599,107.501294 L327.535935,107.501294 Z" id="Fill-1"></path>
                </g>
                <path d="M243.111282,138.583453 L69.7020762,138.583453 C67.9686982,138.583453 66.5633202,137.178075 66.5633202,135.444697 L66.5633202,26.222266 C66.5633202,24.488888 67.9686982,23.08351 69.7020762,23.08351 L243.111282,23.08351 C244.84466,23.08351 246.250038,24.488888 246.250038,26.222266 L246.250038,135.444697 C246.250038,137.178075 244.84466,138.583453 243.111282,138.583453" id="Fill-4" fill="#BCBEC0"></path>
                <path d="M248.176528,138.583453 L74.7673222,138.583453 C73.0331595,138.583453 71.6285662,137.178075 71.6285662,135.444697 L71.6285662,26.222266 C71.6285662,24.488888 73.0331595,23.08351 74.7673222,23.08351 L248.176528,23.08351 C249.909906,23.08351 251.315284,24.488888 251.315284,26.222266 L251.315284,135.444697 C251.315284,137.178075 249.909906,138.583453 248.176528,138.583453" id="Fill-6" fill="#D1D3D4"></path>
                <path d="M242.886312,133.264752 L80.7264073,133.264752 C78.9930293,133.264752 77.5876513,131.859374 77.5876513,130.125996 L77.5876513,31.6224172 C77.5876513,29.8890392 78.9930293,28.4836612 80.7264073,28.4836612 L242.886312,28.4836612 C244.61969,28.4836612 246.025068,29.8890392 246.025068,31.6224172 L246.025068,130.125996 C246.025068,131.859374 244.61969,133.264752 242.886312,133.264752" id="Fill-8" fill="#F5F5F5"></path>
                <polygon id="Fill-10" fill="#A7A9AC" points="66.570147 133.461474 246.881477 133.461474 246.881477 126.799464 66.570147 126.799464"></polygon>
                <path d="M210.442874,119.87631 L183.84898,119.87631 C182.934032,119.87631 182.186224,120.624903 182.186224,121.539066 L182.186224,125.744214 C182.186224,126.658377 182.934032,127.40697 183.84898,127.40697 L210.442874,127.40697 C211.357822,127.40697 212.10563,126.658377 212.10563,125.744214 L212.10563,121.539066 C212.10563,120.624903 211.357822,119.87631 210.442874,119.87631" id="Fill-12" fill="#444444"></path>
                <polygon id="Fill-13" fill="#BCBEC0" points="81.9139556 133.461474 259.299181 133.461474 259.299181 126.799464 81.9139556 126.799464"></polygon>
                <path d="M155.809452,126.872754 L133.239443,126.872754 C132.806294,126.872754 132.454754,126.521213 132.454754,126.088065 L132.454754,123.423261 C132.454754,122.989328 132.806294,122.638572 133.239443,122.638572 L155.809452,122.638572 L155.809452,126.872754 Z" id="Fill-14" fill="#C4D9F0"></path>
                <path d="M161.285012,126.872754 L155.604648,126.872754 L155.604648,122.638572 L159.972227,122.181099 C160.673739,122.108122 161.285012,122.658189 161.285012,123.363625 L161.285012,126.872754 Z" id="Fill-15" fill="#0081F1"></path>
                <path d="M176.72879,196.956938 L194.735833,196.956938 C194.88257,196.956938 195.001058,196.684651 195.001058,196.348019 L195.001058,167.806526 C195.001058,167.469895 194.88257,167.197608 194.735833,167.197608 L176.72879,167.197608 C176.582838,167.197608 176.46435,167.469895 176.46435,167.806526 L176.46435,196.348019 C176.46435,196.684651 176.582838,196.956938 176.72879,196.956938" id="Fill-16" fill="#66BBFF"></path>
                <path d="M194.44644,196.94658 L235.883512,196.94658 C236.220143,196.94658 236.49243,196.674293 236.49243,196.337661 L236.49243,167.796168 C236.49243,167.459537 236.220143,167.18725 235.883512,167.18725 L194.44644,167.18725 C194.109808,167.18725 193.837521,167.459537 193.837521,167.796168 L193.837521,196.337661 C193.837521,196.674293 194.109808,196.94658 194.44644,196.94658" id="Fill-17" fill="#C4D9F0"></path>
                <path d="M202.093234,190.618769 C201.557292,190.618769 201.088048,190.256243 200.953866,189.73521 C200.818114,189.207114 201.062937,188.653908 201.545521,188.399669 L227.798861,174.593851 C228.374823,174.291745 229.086536,174.513028 229.388641,175.08742 C229.691531,175.662597 229.470248,176.37431 228.895071,176.6772 L207.04776,188.166616 L228.301847,187.745238 C228.964909,187.705219 229.489081,188.248224 229.502421,188.898731 C229.514976,189.548454 228.99865,190.085966 228.348928,190.098521 L202.116775,190.618769 C202.108928,190.618769 202.101081,190.618769 202.093234,190.618769" id="Fill-18" fill="#66BBFF"></path>
                <path d="M202.093626,190.098834 C201.443119,190.098834 200.916593,189.572308 200.916593,188.921801 L200.916593,175.635447 C200.916593,174.98494 201.443119,174.458413 202.093626,174.458413 C202.744134,174.458413 203.27066,174.98494 203.27066,175.635447 L203.27066,188.921801 C203.27066,189.572308 202.744134,190.098834 202.093626,190.098834" id="Fill-19" fill="#66BBFF"></path>
            </g>
            <g id="Group-23" transform="translate(199.197496, 173.278947)">
                <mask id="mask-2" fill="white">
                    <use xlink:href="#path-1"></use>
                </mask>
                <g id="Clip-22"></g>
                <path d="M0.193033493,3.00378947 C0.193033493,4.49705263 1.40380861,5.70704306 2.89628708,5.70704306 C4.38876555,5.70704306 5.59875598,4.49705263 5.59875598,3.00378947 C5.59875598,1.511311 4.38876555,0.301320574 2.89628708,0.301320574 C1.40380861,0.301320574 0.193033493,1.511311 0.193033493,3.00378947" id="Fill-21" fill="#4285F4" mask="url(#mask-2)"></path>
            </g>
            <g id="Group-26" transform="translate(225.092233, 173.278947)">
                <mask id="mask-4" fill="white">
                    <use xlink:href="#path-3"></use>
                </mask>
                <g id="Clip-25"></g>
                <path d="M0.530449761,3.00378947 C0.530449761,4.49705263 1.74044019,5.70704306 3.23291866,5.70704306 C4.72539713,5.70704306 5.93617225,4.49705263 5.93617225,3.00378947 C5.93617225,1.511311 4.72539713,0.301320574 3.23291866,0.301320574 C1.74044019,0.301320574 0.530449761,1.511311 0.530449761,3.00378947" id="Fill-24" fill="#4285F4" mask="url(#mask-4)"></path>
            </g>
            <g id="Group-29" transform="translate(199.197496, 186.618660)">
                <mask id="mask-6" fill="white">
                    <use xlink:href="#path-5"></use>
                </mask>
                <g id="Clip-28"></g>
                <path d="M0.193033493,2.95043062 C0.193033493,4.44290909 1.40380861,5.65368421 2.89628708,5.65368421 C4.38876555,5.65368421 5.59875598,4.44290909 5.59875598,2.95043062 C5.59875598,1.45716746 4.38876555,0.247961722 2.89628708,0.247961722 C1.40380861,0.247961722 0.193033493,1.45716746 0.193033493,2.95043062" id="Fill-27" fill="#4285F4" mask="url(#mask-6)"></path>
            </g>
            <g id="Group-32" transform="translate(225.092233, 186.618660)">
                <mask id="mask-8" fill="white">
                    <use xlink:href="#path-7"></use>
                </mask>
                <g id="Clip-31"></g>
                <path d="M0.530449761,2.95043062 C0.530449761,4.44290909 1.74044019,5.65368421 3.23291866,5.65368421 C4.72539713,5.65368421 5.93617225,4.44290909 5.93617225,2.95043062 C5.93617225,1.45716746 4.72539713,0.247961722 3.23291866,0.247961722 C1.74044019,0.247961722 0.530449761,1.45716746 0.530449761,2.95043062" id="Fill-30" fill="#4285F4" mask="url(#mask-8)"></path>
            </g>
            <polygon id="Fill-33" fill="#E7E7E7" points="193.413554 160.806316 236.935544 160.806316 236.935544 155.012172 193.413554 155.012172"></polygon>
            <polygon id="Fill-35" fill="#4285F4" points="193.412769 160.806316 201.98785 160.806316 201.98785 155.011388 193.412769 155.011388"></polygon>
            <g id="Group-45" transform="translate(94.833860, 167.001435)">
                <path d="M0.41141244,30.2959789 L18.4184555,30.2959789 C18.5651923,30.2959789 18.6836804,30.0236919 18.6836804,29.6870603 L18.6836804,1.14556746 C18.6836804,0.808935885 18.5651923,0.536648804 18.4184555,0.536648804 L0.41141244,0.536648804 C0.265460287,0.536648804 0.146972249,0.808935885 0.146972249,1.14556746 L0.146972249,29.6870603 C0.146972249,30.0236919 0.265460287,30.2959789 0.41141244,30.2959789" id="Fill-37" fill="#66BBFF"></path>
                <path d="M18.1290622,30.2856211 L59.566134,30.2856211 C59.9027656,30.2856211 60.1750526,30.013334 60.1750526,29.6767024 L60.1750526,1.13520957 C60.1750526,0.79857799 59.9027656,0.526290909 59.566134,0.526290909 L18.1290622,0.526290909 C17.7924306,0.526290909 17.5201435,0.79857799 17.5201435,1.13520957 L17.5201435,29.6767024 C17.5201435,30.013334 17.7924306,30.2856211 18.1290622,30.2856211" id="Fill-39" fill="#C4D9F0"></path>
                <path d="M52.0073818,23.4382679 C51.8284727,23.4382679 51.6472096,23.3974641 51.4761474,23.3111483 L25.2447789,10.0247943 C24.7582718,9.77840191 24.5048172,9.23147368 24.6311522,8.70102392 C24.7574871,8.17135885 25.2314392,7.79784689 25.7760134,7.79784689 L52.0293531,7.79784689 C52.6798603,7.79784689 53.2063866,8.32437321 53.2063866,8.97488038 C53.2063866,9.62460287 52.6798603,10.1519139 52.0293531,10.1519139 L30.7054297,10.1519139 L52.5401856,21.2105359 C53.1200708,21.5047943 53.3515541,22.2125837 53.0580804,22.7924689 C52.8509225,23.2020766 52.4366067,23.4382679 52.0073818,23.4382679" id="Fill-41" fill="#66BBFF"></path>
                <path d="M25.7762488,23.4378756 C25.1257416,23.4378756 24.5992153,22.9113493 24.5992153,22.2608421 L24.5992153,8.97448804 C24.5992153,8.32476555 25.1257416,7.79745455 25.7762488,7.79745455 C26.426756,7.79745455 26.9532823,8.32476555 26.9532823,8.97448804 L26.9532823,22.2608421 C26.9532823,22.9113493 26.426756,23.4378756 25.7762488,23.4378756" id="Fill-43" fill="#66BBFF"></path>
            </g>
            <g id="Group-48" transform="translate(117.589841, 172.494258)">
                <mask id="mask-10" fill="white">
                    <use xlink:href="#path-9"></use>
                </mask>
                <g id="Clip-47"></g>
                <path d="M0.317014354,3.48244976 C0.317014354,4.97414354 1.52778947,6.18491866 3.02026794,6.18491866 C4.5135311,6.18491866 5.72352153,4.97414354 5.72352153,3.48244976 C5.72352153,1.9891866 4.5135311,0.778411483 3.02026794,0.778411483 C1.52778947,0.778411483 0.317014354,1.9891866 0.317014354,3.48244976" id="Fill-46" fill="#4285F4" mask="url(#mask-10)"></path>
            </g>
            <g id="Group-51" transform="translate(143.484578, 185.833971)">
                <mask id="mask-12" fill="white">
                    <use xlink:href="#path-11"></use>
                </mask>
                <g id="Clip-50"></g>
                <path d="M0.654430622,3.42830622 C0.654430622,4.92078469 1.86442105,6.13155981 3.35768421,6.13155981 C4.84937799,6.13155981 6.06015311,4.92078469 6.06015311,3.42830622 C6.06015311,1.93582775 4.84937799,0.725052632 3.35768421,0.725052632 C1.86442105,0.725052632 0.654430622,1.93582775 0.654430622,3.42830622" id="Fill-49" fill="#4285F4" mask="url(#mask-12)"></path>
            </g>
            <polygon id="Fill-52" fill="#4285F4" points="112.404616 160.499502 155.926606 160.499502 155.926606 154.705359 112.404616 154.705359"></polygon>
            <path d="M120.610815,190.439703 C120.18159,190.439703 119.767274,190.203512 119.560116,189.793904 C119.266643,189.214019 119.498126,188.50623 120.078011,188.211971 L146.310164,174.925617 C146.889265,174.632144 147.597839,174.864411 147.892097,175.444297 C148.185571,176.024182 147.954088,176.732756 147.373418,177.02623 L121.142049,190.312584 C120.970987,190.3989 120.789724,190.439703 120.610815,190.439703" id="Fill-54" fill="#66BBFF"></path>
            <g id="Group-58" transform="translate(143.484578, 172.494258)">
                <mask id="mask-14" fill="white">
                    <use xlink:href="#path-13"></use>
                </mask>
                <g id="Clip-57"></g>
                <path d="M0.654430622,3.48244976 C0.654430622,4.97414354 1.86442105,6.18491866 3.35768421,6.18491866 C4.84937799,6.18491866 6.06015311,4.97414354 6.06015311,3.48244976 C6.06015311,1.9891866 4.84937799,0.778411483 3.35768421,0.778411483 C1.86442105,0.778411483 0.654430622,1.9891866 0.654430622,3.48244976" id="Fill-56" fill="#4285F4" mask="url(#mask-14)"></path>
            </g>
            <g id="Group-61" transform="translate(117.589841, 185.833971)">
                <mask id="mask-16" fill="white">
                    <use xlink:href="#path-15"></use>
                </mask>
                <g id="Clip-60"></g>
                <path d="M0.317014354,3.42830622 C0.317014354,4.92078469 1.52778947,6.13155981 3.02026794,6.13155981 C4.5135311,6.13155981 5.72352153,4.92078469 5.72352153,3.42830622 C5.72352153,1.93582775 4.5135311,0.725052632 3.02026794,0.725052632 C1.52778947,0.725052632 0.317014354,1.93582775 0.317014354,3.42830622" id="Fill-59" fill="#4285F4" mask="url(#mask-16)"></path>
            </g>
            <g id="Group-68" transform="translate(10.872137, 167.001435)">
                <path d="M1.00879617,29.9664096 L19.0158392,29.9664096 C19.1625761,29.9664096 19.2810641,29.6941225 19.2810641,29.3574909 L19.2810641,0.815998086 C19.2810641,0.479366507 19.1625761,0.207079426 19.0158392,0.207079426 L1.00879617,0.207079426 C0.862844019,0.207079426 0.744355981,0.479366507 0.744355981,0.815998086 L0.744355981,29.3574909 C0.744355981,29.6941225 0.862844019,29.9664096 1.00879617,29.9664096" id="Fill-62" fill="#66BBFF"></path>
                <path d="M18.7263675,29.9560517 L60.1634392,29.9560517 C60.5000708,29.9560517 60.7723579,29.6837646 60.7723579,29.347133 L60.7723579,0.805640191 C60.7723579,0.469008612 60.5000708,0.196721531 60.1634392,0.196721531 L18.7263675,0.196721531 C18.3897359,0.196721531 18.1174488,0.469008612 18.1174488,0.805640191 L18.1174488,29.347133 C18.1174488,29.6837646 18.3897359,29.9560517 18.7263675,29.9560517" id="Fill-64" fill="#C4D9F0"></path>
                <path d="M52.6046871,23.108777 C52.425778,23.108777 52.2445148,23.0679732 52.0734526,22.9816574 L25.8420842,9.69530335 C25.355577,9.448911 25.1021225,8.90119809 25.2284574,8.37153301 C25.3547923,7.84186794 25.8287445,7.46757129 26.3733187,7.46757129 L52.6266584,7.46757129 C53.2771656,7.46757129 53.8036919,7.9948823 53.8036919,8.64460478 C53.8036919,9.29511196 53.2771656,9.82163828 52.6266584,9.82163828 L31.3027349,9.82163828 L53.1374909,20.881045 C53.7173761,21.1753033 53.9488593,21.8830928 53.6553856,22.462978 C53.4482278,22.8725856 53.033912,23.108777 52.6046871,23.108777" id="Fill-66" fill="#66BBFF"></path>
            </g>
            <g id="Group-71" transform="translate(34.412807, 172.494258)">
                <mask id="mask-18" fill="white">
                    <use xlink:href="#path-17"></use>
                </mask>
                <g id="Clip-70"></g>
                <path d="M0.129473684,3.15209569 C0.129473684,4.64535885 1.3402488,5.85534928 2.83351196,5.85534928 C4.32599043,5.85534928 5.53598086,4.64535885 5.53598086,3.15209569 C5.53598086,1.65961722 4.32599043,0.448842105 2.83351196,0.448842105 C1.3402488,0.448842105 0.129473684,1.65961722 0.129473684,3.15209569" id="Fill-69" fill="#4285F4" mask="url(#mask-18)"></path>
            </g>
            <g id="Group-74" transform="translate(34.412807, 185.833971)">
                <mask id="mask-20" fill="white">
                    <use xlink:href="#path-19"></use>
                </mask>
                <g id="Clip-73"></g>
                <path d="M0.129473684,3.09873684 C0.129473684,4.592 1.3402488,5.80120574 2.83351196,5.80120574 C4.32599043,5.80120574 5.53598086,4.592 5.53598086,3.09873684 C5.53598086,1.60547368 4.32599043,0.396267943 2.83351196,0.396267943 C1.3402488,0.396267943 0.129473684,1.60547368 0.129473684,3.09873684" id="Fill-72" fill="#4285F4" mask="url(#mask-20)"></path>
            </g>
            <polygon id="Fill-75" fill="#E7E7E7" points="27.9579556 160.169933 71.4799461 160.169933 71.4799461 154.375789 27.9579556 154.375789"></polygon>
            <g id="Group-79" transform="translate(27.350606, 153.661722)">
                <mask id="mask-22" fill="white">
                    <use xlink:href="#path-21"></use>
                </mask>
                <g id="Clip-78"></g>
                <polygon id="Fill-77" fill="#4285F4" mask="url(#mask-22)" points="0.608133971 6.50821053 22.1666794 6.50821053 22.1666794 0.714066986 0.608133971 0.714066986"></polygon>
            </g>
            <path d="M63.4776092,190.10982 C62.8271021,190.10982 62.3005757,189.583294 62.3005757,188.932787 L62.3005757,175.646433 C62.3005757,174.995925 62.8271021,174.469399 63.4776092,174.469399 C64.1281164,174.469399 64.6546427,174.995925 64.6546427,175.646433 L64.6546427,188.932787 C64.6546427,189.583294 64.1281164,190.10982 63.4776092,190.10982" id="Fill-80" fill="#66BBFF"></path>
            <g id="Group-84" transform="translate(60.307544, 172.494258)">
                <mask id="mask-24" fill="white">
                    <use xlink:href="#path-23"></use>
                </mask>
                <g id="Clip-83"></g>
                <path d="M0.466889952,3.15209569 C0.466889952,4.64535885 1.67688038,5.85534928 3.17014354,5.85534928 C4.66262201,5.85534928 5.87261244,4.64535885 5.87261244,3.15209569 C5.87261244,1.65961722 4.66262201,0.448842105 3.17014354,0.448842105 C1.67688038,0.448842105 0.466889952,1.65961722 0.466889952,3.15209569" id="Fill-82" fill="#4285F4" mask="url(#mask-24)"></path>
            </g>
            <g id="Group-87" transform="translate(60.307544, 185.833971)">
                <mask id="mask-26" fill="white">
                    <use xlink:href="#path-25"></use>
                </mask>
                <g id="Clip-86"></g>
                <path d="M0.466889952,3.09873684 C0.466889952,4.592 1.67688038,5.80120574 3.17014354,5.80120574 C4.66262201,5.80120574 5.87261244,4.592 5.87261244,3.09873684 C5.87261244,1.60547368 4.66262201,0.396267943 3.17014354,0.396267943 C1.67688038,0.396267943 0.466889952,1.60547368 0.466889952,3.09873684" id="Fill-85" fill="#4285F4" mask="url(#mask-26)"></path>
            </g>
            <g id="Group-94" transform="translate(255.695104, 167.001435)">
                <path d="M0.848876555,29.9664096 L18.8559196,29.9664096 C19.0026565,29.9664096 19.1211445,29.6941225 19.1211445,29.3574909 L19.1211445,0.815998086 C19.1211445,0.479366507 19.0026565,0.207079426 18.8559196,0.207079426 L0.848876555,0.207079426 C0.702924402,0.207079426 0.584436364,0.479366507 0.584436364,0.815998086 L0.584436364,29.3574909 C0.584436364,29.6941225 0.702924402,29.9664096 0.848876555,29.9664096" id="Fill-88" fill="#66BBFF"></path>
                <path d="M18.5665263,29.9560517 L60.0035981,29.9560517 C60.3402297,29.9560517 60.6125167,29.6837646 60.6125167,29.347133 L60.6125167,0.805640191 C60.6125167,0.469008612 60.3402297,0.196721531 60.0035981,0.196721531 L18.5665263,0.196721531 C18.2298947,0.196721531 17.9576077,0.469008612 17.9576077,0.805640191 L17.9576077,29.347133 C17.9576077,29.6837646 18.2298947,29.9560517 18.5665263,29.9560517" id="Fill-90" fill="#C4D9F0"></path>
                <path d="M52.4445321,23.108777 C52.265623,23.108777 52.0843598,23.0679732 51.9132976,22.9816574 L25.6819292,9.69530335 C25.1962067,9.448911 24.9427522,8.90119809 25.0690871,8.37153301 C25.195422,7.84186794 25.6685895,7.46757129 26.2139483,7.46757129 L52.467288,7.46757129 C53.1170105,7.46757129 53.6443215,7.9948823 53.6443215,8.64460478 C53.6443215,9.29511196 53.1170105,9.82163828 52.467288,9.82163828 L31.1425799,9.82163828 L52.9773359,20.881045 C53.5572211,21.1753033 53.7887043,21.8830928 53.4952306,22.462978 C53.2880727,22.8725856 52.8737569,23.108777 52.4445321,23.108777" id="Fill-92" fill="#66BBFF"></path>
            </g>
            <g id="Group-97" transform="translate(278.451085, 172.494258)">
                <mask id="mask-28" fill="white">
                    <use xlink:href="#path-27"></use>
                </mask>
                <g id="Clip-96"></g>
                <path d="M0.754870813,3.15209569 C0.754870813,4.64535885 1.96486124,5.85534928 3.45733971,5.85534928 C4.95060287,5.85534928 6.16137799,4.64535885 6.16137799,3.15209569 C6.16137799,1.65961722 4.95060287,0.448842105 3.45733971,0.448842105 C1.96486124,0.448842105 0.754870813,1.65961722 0.754870813,3.15209569" id="Fill-95" fill="#4285F4" mask="url(#mask-28)"></path>
            </g>
            <polygon id="Fill-98" fill="#E7E7E7" points="272.62163 160.169933 316.143621 160.169933 316.143621 154.375789 272.62163 154.375789"></polygon>
            <polygon id="Fill-100" fill="#4285F4" points="272.62163 160.169933 309.137133 160.169933 309.137133 154.375789 272.62163 154.375789"></polygon>
            <path d="M308.140421,190.10982 C307.489914,190.10982 306.963387,189.583294 306.963387,188.932787 L306.963387,175.646433 C306.963387,174.995925 307.489914,174.469399 308.140421,174.469399 C308.790928,174.469399 309.317454,174.995925 309.317454,175.646433 L309.317454,188.932787 C309.317454,189.583294 308.790928,190.10982 308.140421,190.10982" id="Fill-102" fill="#66BBFF"></path>
            <g id="Group-106" transform="translate(305.130511, 185.833971)">
                <mask id="mask-30" fill="white">
                    <use xlink:href="#path-29"></use>
                </mask>
                <g id="Clip-105"></g>
                <path d="M0.306813397,3.09873684 C0.306813397,4.592 1.51758852,5.80120574 3.01006699,5.80120574 C4.50333014,5.80120574 5.71253589,4.592 5.71253589,3.09873684 C5.71253589,1.60547368 4.50333014,0.396267943 3.01006699,0.396267943 C1.51758852,0.396267943 0.306813397,1.60547368 0.306813397,3.09873684" id="Fill-104" fill="#4285F4" mask="url(#mask-30)"></path>
            </g>
            <g id="Group-121" transform="translate(124.652042, 54.790909)">
                <path d="M5.85974354,41.507223 C5.16686316,41.507223 4.49516938,41.1392038 4.13813589,40.4894813 C3.61710239,39.539223 3.96393493,38.3464957 4.91340861,37.8254622 L58.6253703,8.34234258 L5.85817416,8.34234258 C4.77451866,8.34234258 3.89645167,7.4642756 3.89645167,6.3806201 C3.89645167,5.29696459 4.77451866,4.41889761 5.85817416,4.41889761 L66.276088,4.41889761 C67.1714182,4.41889761 67.9537531,5.02624689 68.1766048,5.89332823 C68.3986718,6.76119426 68.0047579,7.66907943 67.2200689,8.10065837 L6.80215502,41.2647541 C6.50240383,41.4287541 6.17832727,41.507223 5.85974354,41.507223" id="Fill-107" fill="#66BBFF"></path>
                <path d="M66.2738909,41.507223 C65.9545225,41.507223 65.6312306,41.4287541 65.3314794,41.2647541 L7.8192689,9.69514641 L7.8192689,36.3165053 C7.8192689,37.4001608 6.94120191,38.2782278 5.85754641,38.2782278 C4.77389091,38.2782278 3.89582392,37.4001608 3.89582392,36.3165053 L3.89582392,6.3806201 C3.89582392,5.68773971 4.26227368,5.04586411 4.85863732,4.69275407 C5.45657033,4.33964402 6.19496268,4.32787368 6.80152727,4.66136651 L67.2202258,37.8254622 C68.1696995,38.3464957 68.5165321,39.539223 67.9954986,40.4894813 C67.6384651,41.1392038 66.9667713,41.507223 66.2738909,41.507223" id="Fill-109" fill="#66BBFF"></path>
                <path d="M11.48871,6.3808555 C11.48871,9.49057799 8.96750431,12.0117837 5.85778182,12.0117837 C2.74805933,12.0117837 0.226853589,9.49057799 0.226853589,6.3808555 C0.226853589,3.27113301 2.74805933,0.749927273 5.85778182,0.749927273 C8.96750431,0.749927273 11.48871,3.27113301 11.48871,6.3808555" id="Fill-111" fill="#4285F4"></path>
                <path d="M71.6728651,6.3808555 C71.6728651,9.49057799 69.1516593,12.0117837 66.0419368,12.0117837 C62.9322144,12.0117837 60.4110086,9.49057799 60.4110086,6.3808555 C60.4110086,3.27113301 62.9322144,0.749927273 66.0419368,0.749927273 C69.1516593,0.749927273 71.6728651,3.27113301 71.6728651,6.3808555" id="Fill-113" fill="#4285F4"></path>
                <path d="M11.48871,39.5337301 C11.48871,42.6434526 8.96750431,45.1646584 5.85778182,45.1646584 C2.74805933,45.1646584 0.226853589,42.6434526 0.226853589,39.5337301 C0.226853589,36.4240077 2.74805933,33.9028019 5.85778182,33.9028019 C8.96750431,33.9028019 11.48871,36.4240077 11.48871,39.5337301" id="Fill-115" fill="#4285F4"></path>
                <path d="M71.6728651,39.5337301 C71.6728651,42.6434526 69.1516593,45.1646584 66.0419368,45.1646584 C62.9322144,45.1646584 60.4110086,42.6434526 60.4110086,39.5337301 C60.4110086,36.4240077 62.9322144,33.9028019 66.0419368,33.9028019 C69.1516593,33.9028019 71.6728651,36.4240077 71.6728651,39.5337301" id="Fill-117" fill="#4285F4"></path>
                <path d="M157.257638,135.319303 C156.828413,135.319303 156.414098,135.083112 156.20694,134.673504 C155.913466,134.093619 156.144949,133.38583 156.724834,133.091571 L182.956203,119.805217 C183.536873,119.511744 184.244662,119.743227 184.538921,120.323897 C184.832394,120.902997 184.600126,121.611571 184.020241,121.90583 L157.788873,135.192184 C157.617811,135.2785 157.436547,135.319303 157.257638,135.319303" id="Fill-119" fill="#66BBFF"></path>
            </g>
            <g id="Group-124" transform="translate(278.451085, 185.833971)">
                <mask id="mask-32" fill="white">
                    <use xlink:href="#path-31"></use>
                </mask>
                <g id="Clip-123"></g>
                <path d="M0.754870813,3.09873684 C0.754870813,4.592 1.96486124,5.80120574 3.45733971,5.80120574 C4.95060287,5.80120574 6.16137799,4.592 6.16137799,3.09873684 C6.16137799,1.60547368 4.95060287,0.396267943 3.45733971,0.396267943 C1.96486124,0.396267943 0.754870813,1.60547368 0.754870813,3.09873684" id="Fill-122" fill="#4285F4" mask="url(#mask-32)"></path>
            </g>
            <g id="Group-127" transform="translate(305.130511, 172.494258)">
                <mask id="mask-34" fill="white">
                    <use xlink:href="#path-33"></use>
                </mask>
                <g id="Clip-126"></g>
                <path d="M0.306813397,3.15209569 C0.306813397,4.64535885 1.51758852,5.85534928 3.01006699,5.85534928 C4.50333014,5.85534928 5.71253589,4.64535885 5.71253589,3.15209569 C5.71253589,1.65961722 4.50333014,0.448842105 3.01006699,0.448842105 C1.51758852,0.448842105 0.306813397,1.65961722 0.306813397,3.15209569" id="Fill-125" fill="#4285F4" mask="url(#mask-34)"></path>
            </g>
        </g>
    </g>
</svg>